<svg width="1456" height="495" viewBox="0 0 1456 495" fill="none" xmlns="http://www.w3.org/2000/svg">
<path fill-rule="evenodd" clip-rule="evenodd" d="M455.49 494.438H39.7377C18.274 494.438 0.875 477.039 0.875 455.575V39.8255C0.875 18.3618 18.274 0.962891 39.7377 0.962891H455.49C476.953 0.962891 494.35 18.3618 494.35 39.8255V455.575C494.35 477.039 476.953 494.438 455.49 494.438" fill="#1F2B2D"/>
<path fill-rule="evenodd" clip-rule="evenodd" d="M208.805 166.2L249.749 207.144L290.695 166.2L249.749 125.254L208.805 166.2" fill="#FF2A90"/>
<path fill-rule="evenodd" clip-rule="evenodd" d="M208.805 329.175L249.749 370.119L290.695 329.175L249.749 288.229L208.805 329.175" fill="#FF2A90"/>
<path fill-rule="evenodd" clip-rule="evenodd" d="M290.266 248.091L331.21 289.035L372.156 248.091L331.21 207.144L290.266 248.091" fill="#FF2A90"/>
<path fill-rule="evenodd" clip-rule="evenodd" d="M128.195 248.091L169.139 289.035L210.086 248.091L169.139 207.144L128.195 248.091" fill="#FF2A90"/>
<path d="M1426.41 131.604L1455.06 363.797H1425.06L1403.49 186.872L1329.69 338.522H1303.07L1228.59 186.872L1207.36 363.797H1177.37L1205.68 131.604H1233.31L1316.21 303.811L1398.78 131.604H1426.41Z" fill="#1F2B2D"/>
<path d="M946.125 131.604H1038.46C1087.67 131.604 1107.55 168 1107.55 204.059C1107.55 240.792 1087.67 276.514 1038.46 276.514H976.792V363.797H946.125V131.604ZM976.792 247.869H1036.44C1065.42 247.869 1076.88 226.301 1076.88 204.059C1076.88 182.491 1065.76 159.912 1038.13 159.912H976.792V247.869Z" fill="#1F2B2D"/>
<path d="M774.552 367.841C708.837 367.841 656.602 313.921 656.602 248.206C656.602 182.491 708.837 127.56 774.552 127.56C810.274 127.56 841.278 142.725 861.835 166.989L839.593 185.861C824.091 167.663 800.501 155.868 774.552 155.868C725.687 155.868 687.269 198.33 687.269 248.206C687.269 297.745 725.687 339.533 774.552 339.533C800.501 339.533 824.091 327.738 839.593 309.54L861.835 328.412C841.278 352.676 810.274 367.841 774.552 367.841Z" fill="#1F2B2D"/>
</svg>
